<svg width="290" height="124" viewBox="0 0 290 124" fill="none" xmlns="http://www.w3.org/2000/svg">
<path fill-rule="evenodd" clip-rule="evenodd" d="M263.811 1.42799C257.65 3.12499 253.614 5.67699 241.082 15.801L230.664 24.217L223.582 23.182C195.283 19.047 144.504 11.958 143.188 11.958C141.844 11.958 127 22.025 127 22.936C127 23.331 128.688 24.339 130.75 25.175C132.813 26.011 148.225 32.211 165 38.952C181.775 45.693 195.649 51.339 195.832 51.498C196.014 51.658 192.639 54.566 188.332 57.962C184.024 61.358 178.992 65.334 177.149 66.797L173.798 69.458H154.649H135.5L131.719 72.35L127.938 75.242L135.719 79.597C139.999 81.992 144.175 84.365 145 84.869C145.825 85.373 150.15 87.693 154.611 90.024L162.722 94.263L179.42 85.604C188.604 80.841 198.575 75.372 201.578 73.451C204.582 71.53 207.297 69.958 207.612 69.958C210.203 69.958 278.352 20.884 287.25 12.61C296.261 4.23199 280.659 -3.21201 263.811 1.42799ZM224.5 69.923C216.25 75.362 208.694 80.407 207.708 81.135C205.99 82.404 196.489 108.78 197.416 109.708C198.376 110.667 211.423 106.978 213.109 105.271C215.08 103.275 240.647 59.882 239.785 59.996C239.628 60.017 232.75 64.484 224.5 69.923ZM132 93.966C119.009 100.847 95.444 108.939 76.914 112.883C56.652 117.195 45.9 118.165 22.389 117.803C1.894 117.487 -0.000999605 117.601 3.95264e-07 119.149C3.95264e-07 120.079 0.338 121.048 0.75 121.303C1.163 121.557 9.243 122.306 18.707 122.967C49.155 125.093 82.257 121.289 114 112.018C123.487 109.247 141.009 103.297 146.308 101.046L150.36 99.326L144.517 95.142C141.304 92.841 138.41 90.979 138.087 91.005C137.764 91.031 135.025 92.363 132 93.966Z" fill="black"/>
</svg>
